<svg width="179" height="62" viewBox="0 0 179 62" fill="none" xmlns="http://www.w3.org/2000/svg">
<path d="M58.8 61.568C57.6053 61.568 56.2827 61.3547 54.832 60.928C50.48 59.904 47.4933 57.2587 45.872 52.992C44.5067 49.7493 44.5493 46.08 46 41.984C46.512 40.5333 47.28 38.8267 48.304 36.864C48.4747 36.5227 48.6453 36.1387 48.816 35.712C49.072 35.2853 49.328 34.9013 49.584 34.56C47.7067 35.584 45.7867 36.6933 43.824 37.888C41.9467 38.9973 40.0267 40.064 38.064 41.088C34.6507 43.2213 31.3227 45.184 28.08 46.976C24.8373 48.6827 21.8507 50.1333 19.12 51.328C15.9627 52.7787 12.72 52.864 9.392 51.584C6.064 50.304 3.71733 48.0427 2.352 44.8C0.901333 41.5573 0.816 38.3147 2.096 35.072C3.376 31.744 5.63733 29.3973 8.88 28.032C10.8427 27.0933 13.2747 25.856 16.176 24.32C19.0773 22.6987 22.1067 20.9493 25.264 19.072C29.0187 16.8533 32.9867 14.592 37.168 12.288C41.3493 9.89867 45.4027 7.85066 49.328 6.144C53.8507 3.92533 58.0747 2.432 62 1.664C64.7307 0.98133 67.2907 0.597329 69.68 0.511997C72.0693 0.426665 74.3307 0.682666 76.464 1.28C81.1573 2.64533 84.3573 5.54666 86.064 9.984C87.344 13.1413 87.5147 16.2987 86.576 19.456C85.7227 22.528 84.5707 25.4293 83.12 28.16C83.376 28.0747 83.632 27.9893 83.888 27.904C84.2293 27.8187 84.528 27.7333 84.784 27.648C88.0267 26.4533 91.2267 26.624 94.384 28.16C97.6267 29.6107 99.8453 32 101.04 35.328C102.235 38.656 102.107 41.9413 100.656 45.184C99.2053 48.3413 96.7733 50.5173 93.36 51.712C89.4347 53.0773 85.7653 54.3573 82.352 55.552C79.024 56.7467 76.08 57.7707 73.52 58.624C70.0213 59.648 67.12 60.416 64.816 60.928C62.5973 61.3547 60.592 61.568 58.8 61.568ZM134.175 61.568C132.98 61.568 131.658 61.3547 130.207 60.928C125.855 59.904 122.868 57.2587 121.247 52.992C119.882 49.7493 119.924 46.08 121.375 41.984C121.887 40.5333 122.655 38.8267 123.679 36.864C123.85 36.5227 124.02 36.1387 124.191 35.712C124.447 35.2853 124.703 34.9013 124.959 34.56C123.082 35.584 121.162 36.6933 119.199 37.888C117.322 38.9973 115.402 40.064 113.439 41.088C110.026 43.2213 106.698 45.184 103.455 46.976C100.212 48.6827 97.2257 50.1333 94.495 51.328C91.3377 52.7787 88.095 52.864 84.767 51.584C81.439 50.304 79.0923 48.0427 77.727 44.8C76.2763 41.5573 76.191 38.3147 77.471 35.072C78.751 31.744 81.0123 29.3973 84.255 28.032C86.2177 27.0933 88.6497 25.856 91.551 24.32C94.4523 22.6987 97.4817 20.9493 100.639 19.072C104.394 16.8533 108.362 14.592 112.543 12.288C116.724 9.89867 120.778 7.85066 124.703 6.144C129.226 3.92533 133.45 2.432 137.375 1.664C140.106 0.98133 142.666 0.597329 145.055 0.511997C147.444 0.426665 149.706 0.682666 151.839 1.28C156.532 2.64533 159.732 5.54666 161.439 9.984C162.719 13.1413 162.89 16.2987 161.951 19.456C161.098 22.528 159.946 25.4293 158.495 28.16C158.751 28.0747 159.007 27.9893 159.263 27.904C159.604 27.8187 159.903 27.7333 160.159 27.648C163.402 26.4533 166.602 26.624 169.759 28.16C173.002 29.6107 175.22 32 176.415 35.328C177.61 38.656 177.482 41.9413 176.031 45.184C174.58 48.3413 172.148 50.5173 168.735 51.712C164.81 53.0773 161.14 54.3573 157.727 55.552C154.399 56.7467 151.455 57.7707 148.895 58.624C145.396 59.648 142.495 60.416 140.191 60.928C137.972 61.3547 135.967 61.568 134.175 61.568Z" fill="url(#paint0_linear_1_3)"/>
<defs>
<linearGradient id="paint0_linear_1_3" x1="14" y1="60.2415" x2="165" y2="61.2754" gradientUnits="userSpaceOnUse">
<stop stop-color="#246AD5"/>
<stop offset="0.263925" stop-color="#1A3F9D"/>
<stop offset="1" stop-color="#AC0A96"/>
</linearGradient>
</defs>
</svg>
