<svg width="175" height="112" viewBox="0 0 175 112" fill="none" xmlns="http://www.w3.org/2000/svg">
<path d="M80.304 76.92C79.7067 77.7733 79.1093 78.5413 78.512 79.224C77.9147 79.8213 77.4027 80.3333 76.976 80.76L76.08 81.656C75.9093 81.7413 75.696 81.8693 75.44 82.04C75.2693 82.2107 75.0987 82.3813 74.928 82.552C74.7573 82.8933 74.5867 83.2347 74.416 83.576C74.3307 83.832 74.2027 84.1307 74.032 84.472C73.6053 85.496 73.0507 86.392 72.368 87.16C72.2827 87.2453 72.1973 87.3733 72.112 87.544C72.112 87.7147 72.0693 87.7573 71.984 87.672C71.8987 87.5867 71.856 87.4587 71.856 87.288L71.088 88.44C71.0027 88.6107 70.8747 88.7813 70.704 88.952C70.704 88.952 70.6613 88.9947 70.576 89.08C70.576 89.08 70.5333 89.08 70.448 89.08C70.3627 89.08 70.32 89.1227 70.32 89.208C70.32 89.208 70.2773 89.208 70.192 89.208C70.1067 90.1467 70.064 91.5973 70.064 93.56C70.064 95.5227 70.0213 97.656 69.936 99.96C69.936 102.264 69.8933 104.397 69.808 106.36C69.808 108.323 69.7653 109.773 69.68 110.712C69.68 110.797 69.5947 110.883 69.424 110.968C69.2533 111.053 69.168 111.053 69.168 110.968C69.0827 110.029 68.9973 108.536 68.912 106.488C68.912 104.44 68.912 102.221 68.912 99.832C68.912 97.528 68.8693 95.352 68.784 93.304C68.784 91.3413 68.7413 89.848 68.656 88.824C68.4853 88.6533 68.3147 88.5253 68.144 88.44C68.144 88.44 68.0587 88.3547 67.888 88.184C67.888 88.184 67.8453 88.184 67.76 88.184C67.76 88.0987 67.76 88.0133 67.76 87.928C67.6747 87.928 67.632 87.928 67.632 87.928C67.632 87.8427 67.5893 87.8 67.504 87.8L67.376 87.928C67.2907 88.184 67.248 88.44 67.248 88.696C67.248 88.952 67.1627 89.2933 66.992 89.72C66.9067 90.0613 66.736 90.36 66.48 90.616C66.3093 90.872 66.096 91.1707 65.84 91.512C65.84 91.5973 65.7547 91.8107 65.584 92.152C65.4133 92.3227 65.2853 92.408 65.2 92.408C65.1147 92.408 65.072 92.408 65.072 92.408C65.072 92.4933 65.072 92.536 65.072 92.536C64.304 93.9013 63.664 95.4373 63.152 97.144L62.256 100.088C62.1707 100.344 62.0427 100.685 61.872 101.112C61.7867 101.624 61.744 101.752 61.744 101.496C61.5733 100.131 61.488 98.7653 61.488 97.4C61.5733 96.0347 61.5307 94.6693 61.36 93.304C61.36 93.3893 61.3173 93.432 61.232 93.432C61.232 93.432 61.232 93.4747 61.232 93.56C61.0613 94.1573 60.848 94.712 60.592 95.224C60.336 95.8213 60.08 96.4187 59.824 97.016C59.3973 97.9547 58.8853 98.8933 58.288 99.832C57.6907 100.771 57.008 101.624 56.24 102.392C56.1547 102.477 55.984 102.605 55.728 102.776C55.5573 103.032 55.344 103.245 55.088 103.416C54.7467 103.757 54.4053 104.099 54.064 104.44C53.808 104.867 53.3387 104.995 52.656 104.824C52.144 104.568 51.6747 104.227 51.248 103.8C50.9067 103.544 50.5227 103.203 50.096 102.776C49.7547 102.349 49.4133 101.965 49.072 101.624C48.3893 100.771 47.7493 99.832 47.152 98.808C46.64 97.8693 46.0853 96.888 45.488 95.864C45.3173 95.5227 45.104 95.096 44.848 94.584C44.592 94.1573 44.336 93.7733 44.08 93.432L43.696 93.048C43.696 92.9627 43.6107 92.92 43.44 92.92C43.44 92.92 43.2693 92.792 42.928 92.536C42.7573 92.6213 42.672 92.792 42.672 93.048C42.672 93.3893 42.5867 93.6453 42.416 93.816C42.2453 94.1573 42.1173 94.328 42.032 94.328C41.9467 94.2427 41.8613 94.1147 41.776 93.944C41.776 93.7733 41.7333 93.6453 41.648 93.56L41.264 92.28H41.136C31.92 92.1093 24.2827 90.7013 18.224 88.056C12.2507 85.3253 7.77067 81.9547 4.784 77.944C4.18667 77.176 3.67467 76.408 3.248 75.64C2.82133 74.9573 2.48 74.2747 2.224 73.592L1.712 72.312C1.456 71.6293 1.24267 70.9467 1.072 70.264C0.901333 69.496 0.730667 68.7707 0.56 68.088C0.474667 67.4053 0.346667 66.7227 0.176 66.04C0.0906668 65.272 0.218667 64.5467 0.56 63.864C0.56 63.7787 0.56 63.736 0.56 63.736C0.645334 63.6507 0.688 63.608 0.688 63.608C0.858667 63.2667 1.2 62.9253 1.712 62.584C2.05333 62.4133 2.39467 62.328 2.736 62.328C3.07733 62.2427 3.376 62.2 3.632 62.2C4.82667 62.1147 6.02133 62.1147 7.216 62.2C8.41067 62.2 9.56267 62.2 10.672 62.2H22.832C23.2587 62.2 23.8133 62.2 24.496 62.2C25.264 62.1147 25.9467 62.072 26.544 62.072C27.056 62.072 27.5253 62.1147 27.952 62.2C28.464 62.2 28.8907 62.2427 29.232 62.328C29.9147 62.4133 30.4693 62.6267 30.896 62.968C31.408 63.224 31.92 63.5653 32.432 63.992L34.352 65.272C34.9493 65.6133 35.5467 65.912 36.144 66.168C36.7413 66.424 37.3387 66.6373 37.936 66.808C39.0453 67.1493 40.5387 67.32 42.416 67.32C43.44 67.32 44.4213 67.2773 45.36 67.192C46.2987 67.1067 47.152 66.9787 47.92 66.808L49.2 66.424C49.3707 66.3387 49.4987 66.296 49.584 66.296C49.7547 66.296 49.8827 66.2533 49.968 66.168C51.3333 65.4853 52.016 64.6747 52.016 63.736V63.608C52.016 63.096 51.8027 62.5413 51.376 61.944L50.608 61.176H50.48C50.1387 61.0053 49.6693 61.0053 49.072 61.176C48.4747 61.2613 47.9627 61.3467 47.536 61.432C47.1947 61.432 46.8107 61.4747 46.384 61.56C46.0427 61.56 45.6587 61.56 45.232 61.56C45.0613 61.56 44.8907 61.5173 44.72 61.432C44.5493 61.3467 44.3787 61.304 44.208 61.304C43.952 61.3893 43.696 61.4747 43.44 61.56C43.2693 61.6453 43.0987 61.7307 42.928 61.816C42.5013 61.9867 42.032 62.1573 41.52 62.328C41.008 62.4987 40.496 62.712 39.984 62.968C39.216 63.3093 38.4053 63.608 37.552 63.864C36.784 64.0347 35.9733 63.9493 35.12 63.608C34.608 63.4373 34.1387 63.224 33.712 62.968C33.2853 62.712 32.8587 62.456 32.432 62.2C31.5787 61.7733 30.768 61.304 30 60.792C29.3173 60.28 28.6347 59.7253 27.952 59.128L25.008 56.184L23.984 55.416H23.088C23.0027 55.5013 22.8747 55.6293 22.704 55.8C22.6187 55.8853 22.4907 56.0133 22.32 56.184C21.9787 56.5253 21.5947 56.9093 21.168 57.336C20.7413 57.7627 20.3147 58.1467 19.888 58.488C19.7173 58.5733 19.4613 58.7013 19.12 58.872C18.864 59.0427 18.608 59.0853 18.352 59C18.0107 58.8293 17.712 58.5733 17.456 58.232C17.2 57.8907 16.9867 57.5493 16.816 57.208C16.56 56.5253 16.3467 55.8 16.176 55.032C16.0907 54.264 15.8773 53.5813 15.536 52.984C15.1947 52.728 14.8107 52.4293 14.384 52.088C14.0427 51.7467 13.7013 51.4053 13.36 51.064C13.2747 50.9787 13.1893 50.8933 13.104 50.808C13.104 50.7227 13.0187 50.6373 12.848 50.552C12.2507 49.9547 11.9093 49.656 11.824 49.656C11.824 49.656 11.6533 49.5707 11.312 49.4C11.1413 49.2293 11.056 49.0587 11.056 48.888C10.288 48.2053 9.56267 47.48 8.88 46.712C8.624 46.3707 8.32533 46.072 7.984 45.816C7.728 45.4747 7.51467 45.1333 7.344 44.792C7.00267 44.4507 6.704 44.0667 6.448 43.64C6.192 43.2133 5.936 42.8293 5.68 42.488C5.50933 42.1467 5.33867 41.848 5.168 41.592C4.99733 41.2507 4.82667 40.9093 4.656 40.568C3.888 39.288 3.29067 37.496 2.864 35.192C2.52267 32.888 2.39467 30.6267 2.48 28.408C2.56533 26.104 2.82133 24.312 3.248 23.032C3.41867 22.52 3.58933 22.008 3.76 21.496C3.93067 20.984 4.10133 20.472 4.272 19.96C4.44267 19.448 4.61333 19.064 4.784 18.808C4.95467 18.296 5.12533 17.912 5.296 17.656C8.02667 12.3653 12.4213 8.184 18.48 5.112C24.5387 1.95467 31.8773 0.290665 40.496 0.119995H41.52C48.6027 0.119995 54.7467 1.14399 59.952 3.19199C65.2427 5.15466 69.5947 7.71466 73.008 10.872C76.4213 13.944 78.8533 17.144 80.304 20.472C80.4747 20.984 80.6453 21.496 80.816 22.008C81.072 22.52 81.2427 23.032 81.328 23.544C81.4987 24.056 81.6267 24.6107 81.712 25.208C81.8827 25.8053 81.8827 26.4027 81.712 27C81.5413 27.768 81.2 28.3653 80.688 28.792C80.3467 29.1333 80.048 29.3467 79.792 29.432C79.792 29.432 79.7067 29.5173 79.536 29.688C79.4507 29.688 79.3653 29.6453 79.28 29.56C79.1947 29.6453 79.1093 29.688 79.024 29.688C78.9387 29.6027 78.8107 29.6027 78.64 29.688C78.4693 29.688 78.256 29.7733 78 29.944C77.8293 30.0293 77.6587 30.1147 77.488 30.2C76.8907 30.456 76.2933 30.7547 75.696 31.096C75.184 31.4373 74.5867 31.6507 73.904 31.736C73.2213 31.736 72.5387 31.6507 71.856 31.48C71.1733 31.224 70.4907 31.096 69.808 31.096C69.296 31.096 68.784 31.224 68.272 31.48C67.76 31.6507 67.248 31.6933 66.736 31.608C66.3947 31.5227 66.0533 31.3947 65.712 31.224C65.3707 30.968 65.0293 30.7547 64.688 30.584C64.432 30.4987 64.176 30.4133 63.92 30.328C63.664 30.2427 63.408 30.2 63.152 30.2L62.128 30.456C61.2747 30.6267 60.4213 30.7973 59.568 30.968C58.7147 31.1387 57.8187 31.2667 56.88 31.352C56.5387 31.4373 56.1973 31.5653 55.856 31.736C55.6 31.9067 55.3013 32.0347 54.96 32.12C54.448 32.2907 53.8933 32.4187 53.296 32.504C52.784 32.5893 52.2293 32.5467 51.632 32.376C50.864 32.0347 50.224 31.5227 49.712 30.84C49.2853 30.072 48.816 29.3893 48.304 28.792C48.1333 28.536 47.92 28.28 47.664 28.024C47.408 27.768 47.152 27.512 46.896 27.256C46.8107 27.3413 46.6827 27.384 46.512 27.384C45.0613 27.8107 43.7387 27.64 42.544 26.872C42.288 26.7013 42.032 26.5307 41.776 26.36C41.52 26.104 41.2213 25.9333 40.88 25.848C40.88 25.7627 40.7093 25.6347 40.368 25.464C40.0267 25.5493 39.6853 25.6773 39.344 25.848C39.0027 25.9333 38.6613 26.0613 38.32 26.232C38.2347 26.232 38.1067 26.2747 37.936 26.36C37.8507 26.36 37.7227 26.36 37.552 26.36H36.784C36.4427 26.36 36.2293 26.4027 36.144 26.488C36.144 26.5733 36.0587 26.7013 35.888 26.872C35.888 26.9573 35.8453 27 35.76 27C35.76 27 35.76 27.0427 35.76 27.128C35.5893 27.4693 35.504 27.7253 35.504 27.896C35.4187 28.0667 35.376 28.3227 35.376 28.664C35.376 29.8587 36.0587 30.7547 37.424 31.352C37.5947 31.5227 37.936 31.6933 38.448 31.864C39.216 32.2053 40.0267 32.4613 40.88 32.632C42.5013 33.0587 44.336 33.4427 46.384 33.784L49.584 34.168C49.7547 34.168 49.9253 34.2107 50.096 34.296C50.352 34.296 50.5227 34.296 50.608 34.296L53.04 34.68H53.808C53.8933 34.7653 53.9787 34.808 54.064 34.808C54.32 34.808 54.576 34.8507 54.832 34.936C55.1733 34.936 55.5147 34.9787 55.856 35.064C69.168 37.4533 77.7867 41.976 81.712 48.632C81.7973 48.632 81.84 48.6747 81.84 48.76C82.352 49.3573 82.736 50.168 82.992 51.192C83.0773 51.3627 83.1627 51.576 83.248 51.832C83.3333 52.0027 83.4187 52.1733 83.504 52.344L84.272 54.648C84.272 54.7333 84.272 54.8613 84.272 55.032C84.3573 55.1173 84.4 55.2027 84.4 55.288C84.656 56.056 84.784 56.824 84.784 57.592C84.8693 58.104 84.912 58.616 84.912 59.128C84.912 59.5547 84.912 59.9813 84.912 60.408V62.072C84.912 65.144 84.4 68.088 83.376 70.904C82.7787 73.0373 82.0533 74.6587 81.2 75.768L80.304 76.92ZM169.554 76.92C168.957 77.7733 168.359 78.5413 167.762 79.224C167.165 79.8213 166.653 80.3333 166.226 80.76L165.33 81.656C165.159 81.7413 164.946 81.8693 164.69 82.04C164.519 82.2107 164.349 82.3813 164.178 82.552C164.007 82.8933 163.837 83.2347 163.666 83.576C163.581 83.832 163.453 84.1307 163.282 84.472C162.855 85.496 162.301 86.392 161.618 87.16C161.533 87.2453 161.447 87.3733 161.362 87.544C161.362 87.7147 161.319 87.7573 161.234 87.672C161.149 87.5867 161.106 87.4587 161.106 87.288L160.338 88.44C160.253 88.6107 160.125 88.7813 159.954 88.952C159.954 88.952 159.911 88.9947 159.826 89.08C159.826 89.08 159.783 89.08 159.698 89.08C159.613 89.08 159.57 89.1227 159.57 89.208C159.57 89.208 159.527 89.208 159.442 89.208C159.357 90.1467 159.314 91.5973 159.314 93.56C159.314 95.5227 159.271 97.656 159.186 99.96C159.186 102.264 159.143 104.397 159.058 106.36C159.058 108.323 159.015 109.773 158.93 110.712C158.93 110.797 158.845 110.883 158.674 110.968C158.503 111.053 158.418 111.053 158.418 110.968C158.333 110.029 158.247 108.536 158.162 106.488C158.162 104.44 158.162 102.221 158.162 99.832C158.162 97.528 158.119 95.352 158.034 93.304C158.034 91.3413 157.991 89.848 157.906 88.824C157.735 88.6533 157.565 88.5253 157.394 88.44C157.394 88.44 157.309 88.3547 157.138 88.184C157.138 88.184 157.095 88.184 157.01 88.184C157.01 88.0987 157.01 88.0133 157.01 87.928C156.925 87.928 156.882 87.928 156.882 87.928C156.882 87.8427 156.839 87.8 156.754 87.8L156.626 87.928C156.541 88.184 156.498 88.44 156.498 88.696C156.498 88.952 156.413 89.2933 156.242 89.72C156.157 90.0613 155.986 90.36 155.73 90.616C155.559 90.872 155.346 91.1707 155.09 91.512C155.09 91.5973 155.005 91.8107 154.834 92.152C154.663 92.3227 154.535 92.408 154.45 92.408C154.365 92.408 154.322 92.408 154.322 92.408C154.322 92.4933 154.322 92.536 154.322 92.536C153.554 93.9013 152.914 95.4373 152.402 97.144L151.506 100.088C151.421 100.344 151.293 100.685 151.122 101.112C151.037 101.624 150.994 101.752 150.994 101.496C150.823 100.131 150.738 98.7653 150.738 97.4C150.823 96.0347 150.781 94.6693 150.61 93.304C150.61 93.3893 150.567 93.432 150.482 93.432C150.482 93.432 150.482 93.4747 150.482 93.56C150.311 94.1573 150.098 94.712 149.842 95.224C149.586 95.8213 149.33 96.4187 149.074 97.016C148.647 97.9547 148.135 98.8933 147.538 99.832C146.941 100.771 146.258 101.624 145.49 102.392C145.405 102.477 145.234 102.605 144.978 102.776C144.807 103.032 144.594 103.245 144.338 103.416C143.997 103.757 143.655 104.099 143.314 104.44C143.058 104.867 142.589 104.995 141.906 104.824C141.394 104.568 140.925 104.227 140.498 103.8C140.157 103.544 139.773 103.203 139.346 102.776C139.005 102.349 138.663 101.965 138.322 101.624C137.639 100.771 136.999 99.832 136.402 98.808C135.89 97.8693 135.335 96.888 134.738 95.864C134.567 95.5227 134.354 95.096 134.098 94.584C133.842 94.1573 133.586 93.7733 133.33 93.432L132.946 93.048C132.946 92.9627 132.861 92.92 132.69 92.92C132.69 92.92 132.519 92.792 132.178 92.536C132.007 92.6213 131.922 92.792 131.922 93.048C131.922 93.3893 131.837 93.6453 131.666 93.816C131.495 94.1573 131.367 94.328 131.282 94.328C131.197 94.2427 131.111 94.1147 131.026 93.944C131.026 93.7733 130.983 93.6453 130.898 93.56L130.514 92.28H130.386C121.17 92.1093 113.533 90.7013 107.474 88.056C101.501 85.3253 97.0207 81.9547 94.034 77.944C93.4367 77.176 92.9247 76.408 92.498 75.64C92.0713 74.9573 91.73 74.2747 91.474 73.592L90.962 72.312C90.706 71.6293 90.4927 70.9467 90.322 70.264C90.1513 69.496 89.9807 68.7707 89.81 68.088C89.7247 67.4053 89.5967 66.7227 89.426 66.04C89.3407 65.272 89.4687 64.5467 89.81 63.864C89.81 63.7787 89.81 63.736 89.81 63.736C89.8953 63.6507 89.938 63.608 89.938 63.608C90.1087 63.2667 90.45 62.9253 90.962 62.584C91.3033 62.4133 91.6447 62.328 91.986 62.328C92.3273 62.2427 92.626 62.2 92.882 62.2C94.0767 62.1147 95.2713 62.1147 96.466 62.2C97.6607 62.2 98.8127 62.2 99.922 62.2H112.082C112.509 62.2 113.063 62.2 113.746 62.2C114.514 62.1147 115.197 62.072 115.794 62.072C116.306 62.072 116.775 62.1147 117.202 62.2C117.714 62.2 118.141 62.2427 118.482 62.328C119.165 62.4133 119.719 62.6267 120.146 62.968C120.658 63.224 121.17 63.5653 121.682 63.992L123.602 65.272C124.199 65.6133 124.797 65.912 125.394 66.168C125.991 66.424 126.589 66.6373 127.186 66.808C128.295 67.1493 129.789 67.32 131.666 67.32C132.69 67.32 133.671 67.2773 134.61 67.192C135.549 67.1067 136.402 66.9787 137.17 66.808L138.45 66.424C138.621 66.3387 138.749 66.296 138.834 66.296C139.005 66.296 139.133 66.2533 139.218 66.168C140.583 65.4853 141.266 64.6747 141.266 63.736V63.608C141.266 63.096 141.053 62.5413 140.626 61.944L139.858 61.176H139.73C139.389 61.0053 138.919 61.0053 138.322 61.176C137.725 61.2613 137.213 61.3467 136.786 61.432C136.445 61.432 136.061 61.4747 135.634 61.56C135.293 61.56 134.909 61.56 134.482 61.56C134.311 61.56 134.141 61.5173 133.97 61.432C133.799 61.3467 133.629 61.304 133.458 61.304C133.202 61.3893 132.946 61.4747 132.69 61.56C132.519 61.6453 132.349 61.7307 132.178 61.816C131.751 61.9867 131.282 62.1573 130.77 62.328C130.258 62.4987 129.746 62.712 129.234 62.968C128.466 63.3093 127.655 63.608 126.802 63.864C126.034 64.0347 125.223 63.9493 124.37 63.608C123.858 63.4373 123.389 63.224 122.962 62.968C122.535 62.712 122.109 62.456 121.682 62.2C120.829 61.7733 120.018 61.304 119.25 60.792C118.567 60.28 117.885 59.7253 117.202 59.128L114.258 56.184L113.234 55.416H112.338C112.253 55.5013 112.125 55.6293 111.954 55.8C111.869 55.8853 111.741 56.0133 111.57 56.184C111.229 56.5253 110.845 56.9093 110.418 57.336C109.991 57.7627 109.565 58.1467 109.138 58.488C108.967 58.5733 108.711 58.7013 108.37 58.872C108.114 59.0427 107.858 59.0853 107.602 59C107.261 58.8293 106.962 58.5733 106.706 58.232C106.45 57.8907 106.237 57.5493 106.066 57.208C105.81 56.5253 105.597 55.8 105.426 55.032C105.341 54.264 105.127 53.5813 104.786 52.984C104.445 52.728 104.061 52.4293 103.634 52.088C103.293 51.7467 102.951 51.4053 102.61 51.064C102.525 50.9787 102.439 50.8933 102.354 50.808C102.354 50.7227 102.269 50.6373 102.098 50.552C101.501 49.9547 101.159 49.656 101.074 49.656C101.074 49.656 100.903 49.5707 100.562 49.4C100.391 49.2293 100.306 49.0587 100.306 48.888C99.538 48.2053 98.8127 47.48 98.13 46.712C97.874 46.3707 97.5753 46.072 97.234 45.816C96.978 45.4747 96.7647 45.1333 96.594 44.792C96.2527 44.4507 95.954 44.0667 95.698 43.64C95.442 43.2133 95.186 42.8293 94.93 42.488C94.7593 42.1467 94.5887 41.848 94.418 41.592C94.2473 41.2507 94.0767 40.9093 93.906 40.568C93.138 39.288 92.5407 37.496 92.114 35.192C91.7727 32.888 91.6447 30.6267 91.73 28.408C91.8153 26.104 92.0713 24.312 92.498 23.032C92.6687 22.52 92.8393 22.008 93.01 21.496C93.1807 20.984 93.3513 20.472 93.522 19.96C93.6927 19.448 93.8633 19.064 94.034 18.808C94.2047 18.296 94.3753 17.912 94.546 17.656C97.2767 12.3653 101.671 8.184 107.73 5.112C113.789 1.95467 121.127 0.290665 129.746 0.119995H130.77C137.853 0.119995 143.997 1.14399 149.202 3.19199C154.493 5.15466 158.845 7.71466 162.258 10.872C165.671 13.944 168.103 17.144 169.554 20.472C169.725 20.984 169.895 21.496 170.066 22.008C170.322 22.52 170.493 23.032 170.578 23.544C170.749 24.056 170.877 24.6107 170.962 25.208C171.133 25.8053 171.133 26.4027 170.962 27C170.791 27.768 170.45 28.3653 169.938 28.792C169.597 29.1333 169.298 29.3467 169.042 29.432C169.042 29.432 168.957 29.5173 168.786 29.688C168.701 29.688 168.615 29.6453 168.53 29.56C168.445 29.6453 168.359 29.688 168.274 29.688C168.189 29.6027 168.061 29.6027 167.89 29.688C167.719 29.688 167.506 29.7733 167.25 29.944C167.079 30.0293 166.909 30.1147 166.738 30.2C166.141 30.456 165.543 30.7547 164.946 31.096C164.434 31.4373 163.837 31.6507 163.154 31.736C162.471 31.736 161.789 31.6507 161.106 31.48C160.423 31.224 159.741 31.096 159.058 31.096C158.546 31.096 158.034 31.224 157.522 31.48C157.01 31.6507 156.498 31.6933 155.986 31.608C155.645 31.5227 155.303 31.3947 154.962 31.224C154.621 30.968 154.279 30.7547 153.938 30.584C153.682 30.4987 153.426 30.4133 153.17 30.328C152.914 30.2427 152.658 30.2 152.402 30.2L151.378 30.456C150.525 30.6267 149.671 30.7973 148.818 30.968C147.965 31.1387 147.069 31.2667 146.13 31.352C145.789 31.4373 145.447 31.5653 145.106 31.736C144.85 31.9067 144.551 32.0347 144.21 32.12C143.698 32.2907 143.143 32.4187 142.546 32.504C142.034 32.5893 141.479 32.5467 140.882 32.376C140.114 32.0347 139.474 31.5227 138.962 30.84C138.535 30.072 138.066 29.3893 137.554 28.792C137.383 28.536 137.17 28.28 136.914 28.024C136.658 27.768 136.402 27.512 136.146 27.256C136.061 27.3413 135.933 27.384 135.762 27.384C134.311 27.8107 132.989 27.64 131.794 26.872C131.538 26.7013 131.282 26.5307 131.026 26.36C130.77 26.104 130.471 25.9333 130.13 25.848C130.13 25.7627 129.959 25.6347 129.618 25.464C129.277 25.5493 128.935 25.6773 128.594 25.848C128.253 25.9333 127.911 26.0613 127.57 26.232C127.485 26.232 127.357 26.2747 127.186 26.36C127.101 26.36 126.973 26.36 126.802 26.36H126.034C125.693 26.36 125.479 26.4027 125.394 26.488C125.394 26.5733 125.309 26.7013 125.138 26.872C125.138 26.9573 125.095 27 125.01 27C125.01 27 125.01 27.0427 125.01 27.128C124.839 27.4693 124.754 27.7253 124.754 27.896C124.669 28.0667 124.626 28.3227 124.626 28.664C124.626 29.8587 125.309 30.7547 126.674 31.352C126.845 31.5227 127.186 31.6933 127.698 31.864C128.466 32.2053 129.277 32.4613 130.13 32.632C131.751 33.0587 133.586 33.4427 135.634 33.784L138.834 34.168C139.005 34.168 139.175 34.2107 139.346 34.296C139.602 34.296 139.773 34.296 139.858 34.296L142.29 34.68H143.058C143.143 34.7653 143.229 34.808 143.314 34.808C143.57 34.808 143.826 34.8507 144.082 34.936C144.423 34.936 144.765 34.9787 145.106 35.064C158.418 37.4533 167.037 41.976 170.962 48.632C171.047 48.632 171.09 48.6747 171.09 48.76C171.602 49.3573 171.986 50.168 172.242 51.192C172.327 51.3627 172.413 51.576 172.498 51.832C172.583 52.0027 172.669 52.1733 172.754 52.344L173.522 54.648C173.522 54.7333 173.522 54.8613 173.522 55.032C173.607 55.1173 173.65 55.2027 173.65 55.288C173.906 56.056 174.034 56.824 174.034 57.592C174.119 58.104 174.162 58.616 174.162 59.128C174.162 59.5547 174.162 59.9813 174.162 60.408V62.072C174.162 65.144 173.65 68.088 172.626 70.904C172.029 73.0373 171.303 74.6587 170.45 75.768L169.554 76.92Z" fill="url(#paint0_linear_1_3)"/>
<defs>
<linearGradient id="paint0_linear_1_3" x1="-2" y1="88.4293" x2="178" y2="89.6584" gradientUnits="userSpaceOnUse">
<stop stop-color="#0355E1"/>
<stop offset="1" stop-color="#E50FC8"/>
</linearGradient>
</defs>
</svg>
